<?xml version="1.0" standalone="no"?>
<!DOCTYPE svg PUBLIC "-//W3C//DTD SVG 20010904//EN"
 "http://www.w3.org/TR/2001/REC-SVG-20010904/DTD/svg10.dtd">
<svg version="1.0" xmlns="http://www.w3.org/2000/svg"
 width="1280.000000pt" height="640.000000pt" viewBox="0 0 1280.000000 640.000000"
 preserveAspectRatio="xMidYMid meet">
<metadata>
Created by potrace 1.15, written by Peter Selinger 2001-2017
</metadata>
<g transform="translate(0.000000,640.000000) scale(0.100000,-0.100000)"
fill="#000000" stroke="none">
<path d="M6635 6234 c-160 -133 -498 -310 -805 -423 -240 -88 -438 -142 -945
-261 -644 -150 -886 -231 -1265 -421 -345 -173 -578 -336 -842 -588 -371 -353
-563 -769 -545 -1181 8 -193 53 -335 148 -470 51 -73 250 -258 341 -317 154
-100 312 -138 538 -130 154 6 276 30 413 81 74 28 222 102 276 138 21 14 31
17 26 8 -41 -69 -592 -812 -674 -910 -138 -166 -498 -524 -636 -634 -309 -247
-618 -406 -903 -466 -137 -29 -348 -36 -487 -17 -298 43 -550 172 -663 341
-99 149 -138 297 -129 496 7 145 26 222 90 355 128 264 391 457 690 505 125
20 284 9 390 -27 189 -66 266 -141 397 -386 36 -68 69 -114 108 -150 30 -29
61 -58 69 -65 11 -12 17 -6 34 33 70 157 38 341 -92 535 -63 94 -265 324 -337
383 -78 65 -122 83 -332 138 -209 55 -539 24 -763 -71 -308 -131 -558 -408
-673 -742 -44 -130 -58 -224 -58 -383 -1 -207 35 -357 125 -537 27 -54 49
-105 49 -113 0 -61 102 -181 295 -348 247 -214 696 -407 1037 -447 163 -19
431 -8 585 24 519 109 996 408 1475 924 202 217 446 521 824 1028 570 761
1091 1530 1914 2824 153 239 316 491 364 560 108 155 220 339 252 417 40 97
36 110 -62 215 -47 51 -93 96 -102 100 -39 15 -97 7 -127 -18z m-1268 -1367
c-6 -16 -571 -944 -801 -1317 -151 -245 -187 -298 -172 -256 8 25 -20 68 -93
139 l-60 59 -73 -78 c-210 -221 -489 -406 -700 -464 -92 -25 -236 -30 -318
-11 -79 19 -216 88 -241 122 -48 67 -63 135 -63 284 1 126 3 148 28 225 137
418 556 782 1146 997 304 111 594 181 1180 287 164 29 174 30 167 13z"/>
<path d="M7351 3813 l-41 -38 -50 -240 c-55 -267 -90 -387 -157 -544 -85 -199
-143 -287 -325 -492 -92 -103 -213 -233 -267 -288 -91 -91 -110 -105 -207
-151 -125 -60 -281 -114 -378 -131 -105 -18 -285 -7 -366 22 -81 30 -92 50
-98 177 l-4 93 38 -26 c66 -45 134 -58 264 -52 289 14 550 157 733 402 177
238 218 465 117 653 -46 86 -240 282 -313 316 -195 91 -435 40 -686 -147 -205
-153 -377 -334 -506 -532 -184 -281 -267 -532 -252 -759 13 -192 56 -276 220
-427 189 -174 265 -203 527 -203 181 0 263 10 450 56 168 40 341 105 518 194
l147 74 19 -22 c10 -13 26 -32 35 -43 48 -59 238 -218 292 -245 169 -86 405
-100 687 -40 232 49 455 153 665 311 43 33 80 59 83 59 2 0 4 -17 4 -37 1 -21
6 -50 13 -64 13 -30 168 -179 206 -199 61 -32 240 -29 381 7 79 19 246 86 356
141 l82 41 88 -85 c123 -117 146 -128 264 -127 110 0 258 29 387 74 98 34 297
128 387 184 l60 36 24 -31 c13 -17 45 -50 70 -73 25 -23 76 -70 113 -104 183
-169 443 -211 819 -133 139 29 240 65 370 131 338 171 669 474 673 614 1 29
-10 45 -78 117 -94 99 -107 107 -165 108 -54 0 -44 6 -290 -192 -101 -82 -187
-148 -192 -148 -4 0 -8 20 -8 44 0 69 -26 203 -87 441 -53 209 -55 224 -50
310 7 106 19 147 81 279 l46 99 -32 36 c-73 85 -106 108 -161 115 -28 3 -68
10 -87 16 l-35 10 0 82 c0 106 -22 147 -144 276 l-88 92 -55 0 c-50 0 -59 -4
-97 -37 l-41 -38 -51 -245 c-73 -353 -128 -512 -252 -734 -50 -87 -94 -144
-228 -295 -249 -280 -401 -430 -482 -475 -38 -21 -70 -36 -73 -34 -4 5 149
251 346 553 291 449 410 655 410 712 0 29 -157 201 -203 222 -20 9 -66 15
-124 15 -134 1 -141 -5 -333 -291 -85 -127 -215 -331 -289 -453 -265 -437
-331 -502 -713 -705 -60 -31 -113 -55 -118 -53 -12 4 88 167 334 548 323 498
410 650 410 716 0 26 -14 47 -78 115 -43 47 -95 92 -117 102 -51 23 -153 32
-206 18 -108 -29 -315 -327 -658 -946 -76 -137 -144 -256 -150 -263 -10 -11
-20 -4 -54 35 -54 61 -75 72 -133 73 -52 0 -36 11 -313 -212 -87 -71 -162
-128 -167 -128 -4 0 -8 20 -8 44 0 69 -26 203 -87 441 -53 209 -55 224 -50
310 7 106 19 147 81 279 l46 99 -32 36 c-73 85 -106 108 -161 115 -28 3 -68
10 -87 16 l-35 10 0 82 c0 105 -21 147 -144 276 l-88 92 -55 0 c-50 0 -59 -4
-97 -37z m-1115 -767 c9 -22 -14 -124 -38 -174 -13 -26 -54 -79 -92 -119 -135
-143 -339 -250 -511 -268 -64 -7 -68 -7 -61 11 30 80 198 305 302 404 73 69
168 131 233 150 47 15 161 12 167 -4z m1213 -557 c16 -85 40 -190 52 -234 19
-63 23 -105 24 -200 0 -134 -12 -170 -77 -232 -71 -68 -239 -120 -323 -99 -23
6 -26 10 -20 34 4 15 33 62 66 105 74 99 88 140 65 200 -9 23 -36 63 -61 87
-25 24 -45 53 -45 64 0 10 27 55 60 99 33 43 97 137 142 208 44 71 82 128 84
126 2 -2 17 -73 33 -158z m4000 0 c16 -85 40 -190 53 -234 18 -63 22 -106 23
-200 0 -134 -12 -170 -77 -232 -71 -68 -239 -120 -323 -99 -23 6 -26 10 -20
34 4 15 33 62 66 105 74 99 88 140 65 200 -9 23 -36 63 -61 87 -25 24 -45 53
-45 64 0 10 27 55 60 99 33 43 97 137 142 208 44 71 82 128 84 126 2 -2 17
-73 33 -158z"/>
</g>
</svg>
